<svg xmlns="http://www.w3.org/2000/svg" width="44.3" height="44.3" viewBox="0 0 44.3 44.3">
  <g id="compass" transform="translate(-2.704 0.15)">
    <g id="Group_2530" data-name="Group 2530" transform="translate(2.854)">
      <path id="Path_4153" data-name="Path 4153" d="M24.854,44A22.978,22.978,0,0,0,40.41,38.127a18.812,18.812,0,0,0,0-28.35A22.563,22.563,0,0,0,29.348,4.325c0-.072.012-.145.012-.218A4.325,4.325,0,0,0,24.854,0a4.325,4.325,0,0,0-4.506,4.106c0,.073.008.146.012.219A22.559,22.559,0,0,0,9.3,9.778a18.813,18.813,0,0,0,0,28.35A22.973,22.973,0,0,0,24.854,44Zm0-42.631a2.883,2.883,0,0,1,3,2.726,24.047,24.047,0,0,0-6.005,0A2.882,2.882,0,0,1,24.854,1.369ZM10.359,10.746A21.336,21.336,0,0,1,24.1,5.292V8.213h1.5V5.292a21.341,21.341,0,0,1,13.743,5.454,17.807,17.807,0,0,1,5.985,12.523H42.128v1.369h3.205A17.807,17.807,0,0,1,39.348,37.16,21.337,21.337,0,0,1,25.6,42.615V39.694H24.1v2.921A21.339,21.339,0,0,1,10.359,37.16,17.8,17.8,0,0,1,4.374,24.638H7.58V23.269H4.374A17.8,17.8,0,0,1,10.359,10.746Z" transform="translate(-2.854)" fill="#0facf3" stroke="#0facf3" stroke-width="0.3"/>
      <path id="Path_4154" data-name="Path 4154" d="M24.384,26.748l.179-.174L27.122,20.5l-.419-.419-6.077,2.559-.174.179-2.239,5.757.414.414Zm-.226-.861-2.845-2.845,4.915-2.07ZM20.87,23.5,23.7,26.329l-4.623,1.8Z" transform="translate(-0.675 -0.742)" fill="#0facf3" stroke="#0facf3" stroke-width="0.3"/>
    </g>
  </g>
</svg>
